<svg xmlns="http://www.w3.org/2000/svg" xmlns:xlink="http://www.w3.org/1999/xlink" xmlns:svgjs="http://svgjs.com/svgjs" version="1.1" width="512" height="512" x="0" y="0" viewBox="0 0 512 512" style="enable-background:new 0 0 512 512" xml:space="preserve" class=""><g><linearGradient xmlns="http://www.w3.org/2000/svg" id="a" gradientTransform="matrix(1 0 0 -1 0 -20854)" gradientUnits="userSpaceOnUse" x1="0" x2="512" y1="-21110" y2="-21110"><stop stop-opacity="1" stop-color="#7412cb" offset="0"/><stop stop-opacity="1" stop-color="#e62e83" offset="1"/></linearGradient><path xmlns="http://www.w3.org/2000/svg" d="m512 256c0 141.386719-114.613281 256-256 256s-256-114.613281-256-256 114.613281-256 256-256 256 114.613281 256 256zm0 0" fill="url(#a)" data-original="url(#a)" style=""/><g xmlns="http://www.w3.org/2000/svg" fill="#fff"><path d="m448.75 242.871094-40.140625 40.148437v-26.035156c0-92.15625-74.972656-167.125-167.128906-167.125-92.152344 0-167.125 74.96875-167.125 167.125h.113281c0 17.160156 2.597656 34.089844 7.714844 50.316406l28.609375-9.027343c-4.195313-13.300782-6.324219-27.195313-6.324219-41.289063h-.113281c0-75.613281 61.515625-137.125 137.125-137.125 75.613281 0 137.128906 61.511719 137.128906 137.125v25.777344l-40.382813-40.277344-21.1875 21.238281 76.742188 76.554688 76.183594-76.191406zm0 0" fill="#ffffff" data-original="#ffffff" style=""/><path d="m330.335938 361.285156 19.464843 22.824219c6.453125-5.5 12.53125-11.539063 18.074219-17.953125l-22.695312-19.617188c-4.550782 5.265626-9.546876 10.226563-14.84375 14.746094zm0 0" fill="#ffffff" data-original="#ffffff" style=""/><path d="m121.875 323.871094-26.171875 14.667968c8.347656 14.886719 18.894531 28.378907 31.355469 40.101563l20.558594-21.847656c-10.234376-9.628907-18.894532-20.703125-25.742188-32.921875zm0 0" fill="#ffffff" data-original="#ffffff" style=""/><path d="m154.058594 399.3125c14.582031 8.976562 30.378906 15.617188 46.953125 19.742188l7.25-29.109376c-13.578125-3.382812-26.527344-8.824218-38.480469-16.183593zm0 0" fill="#ffffff" data-original="#ffffff" style=""/><path d="m235.875 393.886719-1.195312 29.976562c2.265624.089844 4.550781.132813 6.804687.132813 8.09375 0 16.226563-.582032 24.179687-1.738282l-4.3125-29.6875c-8.347656 1.210938-16.914062 1.652344-25.476562 1.316407zm0 0" fill="#ffffff" data-original="#ffffff" style=""/><path d="m288.378906 385.765625 10.265625 28.1875c7.964844-2.898437 15.777344-6.445313 23.21875-10.539063l-14.457031-26.285156c-6.101562 3.351563-12.503906 6.261719-19.027344 8.636719zm0 0" fill="#ffffff" data-original="#ffffff" style=""/></g></g></svg>
